<?xml version="1.0" encoding="utf-8"?>
<svg version="1.1" x="0px" y="0px" width="60" height="60" viewBox="2 10 260 250"
     data-markerType="marker"
     data-origin="mapkey"
     data-initial-scale="0.6"
     xmlns="http://www.w3.org/2000/svg">
<path d="M64.166,237.5c-12.895,0-23.386-10.491-23.386-23.386V41.886c0-12.895,10.491-23.386,23.386-23.386h127.668
	c12.895,0,23.387,10.491,23.387,23.386v172.229c0,12.895-10.492,23.386-23.387,23.386L64.166,237.5L64.166,237.5z"
      style="fill: blue; stroke: white; stroke-width: 5;"/>
<path d="M151.691,102.696c0,7.086-2.33,12.483-6.986,16.189c-4.66,3.707-11.68,5.561-21.061,5.561h-10.039V81.734
	h13.876c8.332,0,14.451,1.706,18.354,5.117S151.691,95.545,151.691,102.696z M205.221,41.886v172.229
	c0,7.361-6.025,13.386-13.387,13.386H64.166c-7.362,0-13.386-6.022-13.386-13.386V41.886c0-7.362,6.023-13.386,13.386-13.386
	h127.668C199.195,28.5,205.221,34.523,205.221,41.886z M182.495,101.613c0-14.893-4.544-26.095-13.629-33.609
	c-9.091-7.511-22.357-11.268-39.81-11.268H83.097v143.882h30.509v-51.177h13.088c17.845,0,31.606-4.101,41.285-12.303
	C177.656,128.941,182.495,117.098,182.495,101.613z"
      style="fill: blue; stroke: white; stroke-width: 5;"/>
</svg>
